<svg width="32" height="32" viewBox="0 0 32 32" fill="none" xmlns="http://www.w3.org/2000/svg">
<path d="M20.222 10.7481C17.9926 11.9536 16.1792 13.6815 14.9313 15.8468C14.8033 16.0601 14.686 16.2734 14.5792 16.4976C14.4086 15.8148 14.2379 15.1216 14.0139 14.4601C13.2492 12.2669 11.7741 9.33411 9.45926 9.05203C11.6764 9.58183 12.755 12.4572 13.2886 14.6734C13.5553 15.7934 13.6513 16.9455 13.886 18.151C13.1712 20.2416 12.9792 22.5242 13.3313 24.8708C13.4059 25.4041 13.5233 25.9481 13.6726 26.4921C10.2272 25.2015 7.42196 23.0255 5.5659 20.1455C2.63257 15.6229 2.20594 9.91609 4.41395 4.01766C4.64858 3.39891 5.25659 2.98276 5.9286 3.02547C12.1899 3.45203 17.2566 6.17234 20.1579 10.663C20.1579 10.663 20.1579 10.663 20.1792 10.6734C20.1899 10.6947 20.2113 10.7268 20.222 10.7481Z" fill="white"/>
<path d="M27.4859 23.1002V23.1109C25.6512 26.2468 22.3872 28.3057 18.2486 28.9349L17.9712 28.9776C17.9712 28.8067 17.9819 28.6575 17.9819 28.4976C18.0566 26.9187 18.6219 25.3828 19.5499 24.0281C21.087 21.9901 21.9317 21.6337 23.1019 20.4229C24.2427 19.2418 25.6004 17.352 25.0646 15.8041C25.4397 17.3837 23.9503 18.9801 22.7286 20.039C21.4901 21.0913 20.4037 21.5029 18.7072 23.3776C17.5872 24.6895 16.7446 26.3216 16.4352 28.0921C15.9553 26.9083 15.6139 25.7242 15.4432 24.5614C15.0272 21.7882 15.4859 19.1429 16.7766 16.9135C18.6965 13.5963 22.1739 11.4947 26.6219 10.9828C27.0912 10.9296 27.5499 11.1854 27.7312 11.6229C29.4806 15.7296 29.3952 19.8041 27.4859 23.1002Z" fill="white"/>
</svg>
