<svg width="148" height="60" viewBox="0 0 148 60" fill="none" xmlns="http://www.w3.org/2000/svg">
<path d="M123.854 0C137.189 0 148 10.811 148 24.1465C148 26.1651 147.751 28.1258 147.284 30C147.751 31.8744 148 33.8356 148 35.8545C148 49.1897 137.189 60 123.854 60C115.968 59.9999 108.966 56.2189 104.561 50.374L104.143 49.8027C102.889 48.0346 101.014 46.8301 98.9758 46.8301C97.0652 46.8302 95.2971 47.8884 94.051 49.4775L93.8088 49.8027C89.436 55.9713 82.2376 59.9999 74.0978 60C66.2122 59.9999 59.2102 56.2188 54.8049 50.374L54.3869 49.8027C53.1336 48.0346 51.2579 46.8302 49.2199 46.8301C47.3094 46.8302 45.5413 47.8885 44.2951 49.4775L44.0529 49.8027C39.6802 55.9713 32.4817 59.9999 24.342 60C11.0067 59.9999 0.195978 49.1896 0.195496 35.8545C0.195496 33.8353 0.444382 31.8737 0.911316 29.999C0.444763 28.1252 0.195529 26.1648 0.195496 24.1465C0.195664 10.8111 11.0066 0.000149958 24.342 0C32.4817 0.000132798 39.6802 4.02869 44.0529 10.1973L44.2951 10.5225C45.5413 12.1116 47.3093 13.1708 49.2199 13.1709C51.2579 13.1708 53.1336 11.9654 54.3869 10.1973L54.8049 9.62598C59.2102 3.78118 66.2122 8.86918e-05 74.0978 0C82.2376 5.24744e-05 89.436 4.02869 93.8088 10.1973L94.051 10.5225C95.2971 12.1117 97.0651 13.1708 98.9758 13.1709C101.014 13.1709 102.889 11.9654 104.143 10.1973L104.561 9.62598C108.966 3.78113 115.968 0.000115669 123.854 0ZM146.35 32.9336C142.835 41.9238 134.089 48.292 123.854 48.292C115.968 48.2919 108.966 44.511 104.561 38.666L104.143 38.0947C102.889 36.3267 101.014 35.1221 98.9758 35.1221C97.0652 35.1222 95.2971 36.1804 94.051 37.7695L93.8088 38.0947C89.4361 44.2635 82.2378 48.2919 74.0978 48.292C66.2121 48.2919 59.2102 44.5109 54.8049 38.666L54.3869 38.0947C53.1336 36.3268 51.2578 35.1222 49.2199 35.1221C47.3094 35.1222 45.5413 36.1805 44.2951 37.7695L44.0529 38.0947C39.6803 44.2636 32.4819 48.2919 24.342 48.292C14.1067 48.2919 5.3592 41.9239 1.84491 32.9336C1.72201 33.8897 1.65839 34.8649 1.65839 35.8545C1.65887 48.3814 11.815 58.537 24.342 58.5371C31.9871 58.537 38.7484 54.7542 42.8586 48.9561L43.1398 48.5791C44.5934 46.7252 46.7502 45.3663 49.2199 45.3662C51.8541 45.3663 54.1316 46.9124 55.5803 48.9561L55.9738 49.4941C60.1144 54.9874 66.6916 58.537 74.0978 58.5371C81.743 58.5371 88.5043 54.7542 92.6144 48.9561L92.8957 48.5791C94.3493 46.7251 96.506 45.3663 98.9758 45.3662C101.61 45.3662 103.888 46.9122 105.337 48.9561L105.73 49.4941C109.87 54.9874 116.447 58.537 123.854 58.5371C136.381 58.5371 146.536 48.3815 146.536 35.8545C146.536 34.8649 146.473 33.8897 146.35 32.9336ZM123.854 13.1709C116.447 13.171 109.87 16.7205 105.73 22.2139L105.337 22.752C103.888 24.7956 101.61 26.3418 98.9758 26.3418C96.506 26.3417 94.3493 24.9829 92.8957 23.1289L92.6144 22.752C88.5043 16.9536 81.7432 13.171 74.0978 13.1709C66.6916 13.171 60.1144 16.7206 55.9738 22.2139L55.5803 22.752C54.1315 24.7955 51.854 26.3417 49.2199 26.3418C46.7502 26.3417 44.5934 24.9828 43.1398 23.1289L42.8586 22.752C38.7485 16.9536 31.9873 13.171 24.342 13.1709C13.8393 13.171 5.00482 20.3094 2.42303 29.999C5.00408 39.6896 13.8386 46.829 24.342 46.8291C31.9873 46.829 38.7485 43.0465 42.8586 37.248L43.1398 36.8711C44.5934 35.0172 46.7502 33.6583 49.2199 33.6582C51.854 33.6583 54.1315 35.2045 55.5803 37.248L55.9738 37.7861C60.1144 43.2795 66.6915 46.829 74.0978 46.8291C81.7432 46.829 88.5043 43.0465 92.6144 37.248L92.8957 36.8711C94.3493 35.0171 96.506 33.6583 98.9758 33.6582C101.61 33.6582 103.888 35.2044 105.337 37.248L105.73 37.7861C109.87 43.2795 116.447 46.829 123.854 46.8291C134.357 46.8291 143.19 39.6901 145.772 30C143.19 20.3099 134.357 13.1709 123.854 13.1709ZM123.854 1.46289C116.447 1.46301 109.87 5.01256 105.73 10.5059L105.337 11.0439C103.888 13.0878 101.61 14.6338 98.9758 14.6338C96.5059 14.6337 94.3493 13.2749 92.8957 11.4209L92.6144 11.0439C88.5043 5.24575 81.743 1.46294 74.0978 1.46289C66.6916 1.46298 60.1144 5.01261 55.9738 10.5059L55.5803 11.0439C54.1316 13.0877 51.8542 14.6337 49.2199 14.6338C46.7501 14.6337 44.5934 13.2749 43.1398 11.4209L42.8586 11.0439C38.7484 5.24574 31.9871 1.46302 24.342 1.46289C11.8148 1.46304 1.65855 11.6193 1.65839 24.1465C1.6584 25.1354 1.72214 26.1099 1.84491 27.0654C5.35949 18.0755 14.1072 11.7081 24.342 11.708C32.4818 11.7081 39.6802 15.7365 44.0529 21.9053L44.2951 22.2305C45.5413 23.8195 47.3094 24.8788 49.2199 24.8789C51.2578 24.8788 53.1336 23.6731 54.3869 21.9053L54.8049 21.334C59.2102 15.4892 66.2122 11.7081 74.0978 11.708C82.2377 11.7081 89.4361 15.7365 93.8088 21.9053L94.051 22.2305C95.2971 23.8196 97.0652 24.8788 98.9758 24.8789C101.014 24.8789 102.889 23.6732 104.143 21.9053L104.561 21.334C108.966 15.4891 115.968 11.7081 123.854 11.708C134.088 11.708 142.835 18.0757 146.35 27.0654C146.473 26.1099 146.536 25.1355 146.536 24.1465C146.536 11.6192 136.381 1.46289 123.854 1.46289Z" fill="white" fill-opacity="0.32"/>
</svg>
