<svg width="43" height="43" viewBox="0 0 43 43" fill="none" xmlns="http://www.w3.org/2000/svg">
<path d="M18.2003 34.28C16.8403 34.28 15.5402 33.6599 14.3002 32.4199L8.64027 26.7599C6.16027 24.28 6.16027 21.4399 8.64027 18.9799L18.0803 9.53998C18.6603 8.95998 19.6203 8.95998 20.2003 9.53998L30.5803 19.92C31.1203 20.46 31.4003 21.1599 31.4003 21.9199C31.4003 22.6799 31.1003 23.3999 30.5803 23.9199L22.0803 32.4199C20.8803 33.6599 19.5603 34.28 18.2003 34.28ZM19.1602 12.6999L10.7803 21.0799C10.1403 21.7199 9.80025 22.32 9.80025 22.86C9.80025 23.38 10.1203 23.9798 10.7803 24.6398L16.4403 30.3C17.7403 31.6 18.6802 31.6 19.9802 30.3L28.3602 21.9199L19.1602 12.6999Z" fill="#212B36"/>
<path d="M19.1602 12.08C18.7802 12.08 18.4002 11.9401 18.1002 11.6401L16.2202 9.76007C15.6402 9.18007 15.6402 8.22008 16.2202 7.64008C16.8002 7.06008 17.7602 7.06008 18.3402 7.64008L20.2202 9.52008C20.8002 10.1001 20.8002 11.0601 20.2202 11.6401C19.9202 11.9401 19.5402 12.08 19.1602 12.08Z" fill="#212B36"/>
<path d="M8.37971 24.2805C7.57971 24.2805 6.91971 23.6605 6.87971 22.8405C6.83971 22.0205 7.47971 21.3205 8.31971 21.2805L29.6797 20.3404C30.4997 20.2604 31.1997 20.9405 31.2397 21.7805C31.2797 22.6005 30.6397 23.3005 29.7997 23.3405L8.4397 24.2805C8.4197 24.2805 8.39971 24.2805 8.37971 24.2805Z" fill="#212B36"/>
<path d="M32.1005 35.8002C29.8405 35.8002 27.9805 33.9601 27.9805 31.6801C27.9805 29.5201 30.2805 26.8603 30.9805 26.1003C31.5405 25.4803 32.6205 25.4803 33.1805 26.1003C33.8805 26.8603 36.1805 29.5401 36.1805 31.6801C36.2005 33.9601 34.3605 35.8002 32.1005 35.8002ZM32.1005 29.5002C31.4805 30.3802 30.9805 31.2601 30.9805 31.6801C30.9805 32.2801 31.4805 32.8002 32.1005 32.8002C32.7205 32.8002 33.2205 32.3001 33.2205 31.6801C33.2005 31.2601 32.7205 30.3802 32.1005 29.5002Z" fill="#292D32"/>
<path d="M27.5 43H15.5C4.64 43 0 38.36 0 27.5V15.5C0 4.64 4.64 0 15.5 0H27.5C38.36 0 43 4.64 43 15.5V27.5C43 38.36 38.36 43 27.5 43ZM15.5 3C6.28 3 3 6.28 3 15.5V27.5C3 36.72 6.28 40 15.5 40H27.5C36.72 40 40 36.72 40 27.5V15.5C40 6.28 36.72 3 27.5 3H15.5Z" fill="#292D32"/>
</svg>
