<svg width="31" height="43" viewBox="0 0 31 43" fill="none" xmlns="http://www.w3.org/2000/svg">
<path d="M4.34022 25.5987C10.3966 21.5813 20.2086 21.5813 26.2247 25.5987C29.0103 27.456 30.5649 29.9995 30.5649 32.765C30.5649 35.5306 29.0305 38.0944 26.2247 39.9718C23.1965 41.9906 19.2388 43 15.2819 43C11.3252 42.9999 7.34814 41.9905 4.34022 39.9718C1.53429 38.1145 3.56004e-07 35.5711 0 32.8055C0 30.0398 1.53428 27.4762 4.34022 25.5987ZM24.5489 28.1419C19.5221 24.7907 11.0428 24.7907 6.01598 28.1419C4.07811 29.4338 3.02839 31.0892 3.0282 32.8252C3.0282 34.5412 4.09812 36.1972 6.01598 37.469C11.0428 40.8404 19.5221 40.8404 24.5489 37.469C26.4867 36.1771 27.5365 34.5217 27.5367 32.7858C27.5367 31.0698 26.4667 29.4138 24.5489 28.1419ZM14.9409 0C20.7146 0 25.4183 4.70373 25.4183 10.4774C25.3981 16.1503 20.9568 20.7535 15.3243 20.9352H15.1025C15.0016 20.915 14.8599 20.915 14.7388 20.9352C8.88444 20.7533 4.46344 16.1502 4.46344 10.4774C4.4635 4.70377 9.16721 6.43092e-05 14.9409 0ZM14.9409 3.0282C10.8428 3.02826 7.4917 6.37938 7.49163 10.4774C7.49163 14.5149 10.6407 17.7655 14.658 17.907C14.7589 17.8868 15.0422 17.8868 15.3046 17.907C19.2614 17.7252 22.3699 14.4746 22.3901 10.4774C22.3901 6.37934 19.039 3.0282 14.9409 3.0282Z" fill="#212B36"/>
</svg>
