<svg width="43" height="43" viewBox="0 0 43 43" fill="none" xmlns="http://www.w3.org/2000/svg">
<path d="M21.515 42.99C20.2547 42.99 18.9945 42.5699 18.0142 41.7297L14.8535 39.0091C14.5334 38.729 13.7332 38.4489 13.3131 38.4489H9.85229C6.8916 38.4489 4.49106 36.0485 4.49106 33.0878V29.6668C4.49106 29.2467 4.21099 28.4665 3.93093 28.1464L1.23029 24.9658C-0.410095 23.0253 -0.410095 19.9647 1.23029 18.0242L3.93093 14.8435C4.21099 14.5235 4.49106 13.7433 4.49106 13.3232V9.9022C4.49106 6.94151 6.8916 4.54109 9.85229 4.54109H13.3131C13.7332 4.54109 14.5334 4.24096 14.8535 3.9809L18.0142 1.26029C19.9747 -0.420098 23.0354 -0.420098 24.9958 1.26029L28.1565 3.9809C28.4766 4.26096 29.2768 4.54109 29.6969 4.54109H33.0977C36.0584 4.54109 38.459 6.94151 38.459 9.9022V13.3031C38.459 13.7232 38.759 14.5235 39.0391 14.8435L41.7397 18.0042C43.4201 19.9646 43.4201 23.0253 41.7397 24.9858L39.0391 28.1464C38.759 28.4665 38.4789 29.2667 38.4789 29.6868V33.0878C38.4789 36.0485 36.0784 38.4489 33.1177 38.4489H29.7169C29.2968 38.4489 28.4966 38.749 28.1766 39.0091L25.0159 41.7297C24.0156 42.5699 22.7553 42.99 21.515 42.99ZM9.85229 7.52176C8.55199 7.52176 7.49175 8.58187 7.49175 9.88217V13.3031C7.49175 14.4434 6.95162 15.9037 6.23145 16.7639L3.53081 19.9446C2.83065 20.7648 2.83065 22.1852 3.53081 23.0053L6.23145 26.186C6.97162 27.0662 7.51178 28.5265 7.51178 29.6468V33.0677C7.51178 34.368 8.57201 35.4282 9.87231 35.4282H13.3331C14.4934 35.4282 15.9537 35.9683 16.834 36.7285L19.9947 39.4491C20.8149 40.1493 22.2552 40.1493 23.0754 39.4491L26.2361 36.7285C27.1163 35.9883 28.5767 35.4282 29.7369 35.4282H33.1377C34.438 35.4282 35.4983 34.368 35.4983 33.0677V29.6668C35.4983 28.5065 36.0384 27.0462 36.7986 26.166L39.4992 23.0053C40.1994 22.1852 40.1994 20.7447 39.4992 19.9246L36.7986 16.7639C36.0584 15.8837 35.4983 14.4234 35.4983 13.2631V9.86215C35.4983 8.56185 34.438 7.50174 33.1377 7.50174H29.7369C28.5967 7.50174 27.1163 6.96156 26.2361 6.20138L23.0754 3.48078C22.2552 2.78062 20.8149 2.78062 19.9947 3.48078L16.834 6.20138C15.9537 6.94156 14.4934 7.50174 13.3331 7.50174H9.85229V7.52176Z" fill="#212B36"/>
<path d="M25.4957 31.427H21.9349C21.0947 31.427 19.8343 31.1669 19.0942 30.4267L16.3336 28.3064L18.174 25.9257L21.0747 28.1662C21.2747 28.3062 21.6348 28.4062 21.9349 28.4062H25.4957C25.9758 28.4062 26.5559 27.9863 26.6559 27.5662L28.9365 20.6244C28.9965 20.4443 28.9965 20.3245 28.9765 20.2845C28.9365 20.2245 28.7964 20.1643 28.5964 20.1643H24.8555C24.1353 20.1643 23.4752 19.8644 22.9951 19.3243C22.535 18.7842 22.3149 18.064 22.4149 17.3238L22.8951 14.3031C22.9351 14.1431 22.8151 13.9429 22.695 13.9029C22.575 13.8829 22.395 13.9229 22.335 13.983L18.5141 19.6642L16.0135 17.9839L19.8544 12.2826C20.6545 11.0823 22.335 10.5622 23.6953 11.0623C25.2156 11.5625 26.1958 13.2829 25.8557 14.8433L25.4957 17.1236H28.5964C29.7767 17.1236 30.8169 17.6238 31.4371 18.504C32.0372 19.3642 32.1772 20.4845 31.7971 21.5448L29.5566 28.3464C29.1365 30.0668 27.3561 31.427 25.4957 31.427Z" fill="#212B36"/>
<path d="M15.2943 30.4072H14.354C11.4134 30.4072 10.9733 28.3467 10.9733 27.1264V17.9644C10.9733 16.7441 11.4134 14.6836 14.354 14.6836H15.2943C18.235 14.6836 18.6751 16.7441 18.6751 17.9644V27.1264C18.6751 28.3467 18.235 30.4072 15.2943 30.4072ZM14.014 27.3865C14.094 27.4065 14.214 27.4065 14.3741 27.4065H15.3143C15.4743 27.4065 15.5943 27.4065 15.6744 27.3865C15.6744 27.3265 15.6944 27.2465 15.6944 27.1264V17.9644C15.6944 17.8444 15.6944 17.7643 15.6744 17.7043C15.5943 17.6843 15.4743 17.6843 15.3143 17.6843H14.3741C14.214 17.6843 14.094 17.6843 14.014 17.7043C14.014 17.7643 13.994 17.8444 13.994 17.9644V27.1264C13.994 27.2465 13.994 27.3265 14.014 27.3865Z" fill="#212B36"/>
</svg>
