<svg width="43" height="43" viewBox="0 0 43 43" fill="none" xmlns="http://www.w3.org/2000/svg">
<path d="M21.5 43C9.64 43 0 33.36 0 21.5C0 9.64 9.64 0 21.5 0C33.36 0 43 9.64 43 21.5C43 33.36 33.36 43 21.5 43ZM21.5 3C11.3 3 3 11.3 3 21.5C3 31.7 11.3 40 21.5 40C31.7 40 40 31.7 40 21.5C40 11.3 31.7 3 21.5 3Z" fill="#212B36"/>
<path d="M18.66 28.6602C18.26 28.6602 17.88 28.5002 17.6 28.2202L11.94 22.5602C11.36 21.9802 11.36 21.0202 11.94 20.4402C12.52 19.8602 13.48 19.8602 14.06 20.4402L18.66 25.0402L28.94 14.7602C29.52 14.1802 30.48 14.1802 31.06 14.7602C31.64 15.3402 31.64 16.3002 31.06 16.8802L19.72 28.2202C19.44 28.5002 19.06 28.6602 18.66 28.6602Z" fill="#212B36"/>
</svg>
