<svg width="1360" height="143" viewBox="0 0 1360 143" fill="none" xmlns="http://www.w3.org/2000/svg">
<path d="M1253.32 101.072C1254.09 101.072 1254.86 100.302 1255.63 98.7603C1256.4 97.2189 1256.78 94.6866 1256.78 91.1635V11.8932C1256.78 8.37004 1256.4 5.89284 1255.63 4.46157C1254.86 2.9202 1254.09 2.09447 1253.32 1.98438H1283.54C1282.99 2.09447 1282.99 2.97525 1283.54 4.62671C1284.09 6.16808 1285.85 8.70033 1288.82 12.2235C1289.7 13.1042 1291.19 14.8658 1293.28 17.5081C1295.48 20.0404 1298.18 23.1231 1301.37 26.7564C1304.57 30.3896 1307.92 34.3531 1311.45 38.6469C1315.08 42.9407 1318.77 47.2345 1322.51 51.5283C1326.26 55.8222 1329.83 59.9508 1333.25 63.9143H1333.41V11.8932C1333.41 8.37004 1333.03 5.89284 1332.26 4.46157C1331.48 2.9202 1330.71 2.09447 1329.94 1.98438H1360C1359.23 1.98438 1358.46 2.75506 1357.69 4.29642C1356.92 5.83779 1356.53 8.42509 1356.53 12.0583V91.1635C1356.53 94.6866 1356.92 97.2189 1357.69 98.7603C1358.46 100.302 1359.23 101.072 1360 101.072H1333.91C1334.35 100.962 1334.24 100.136 1333.58 98.5951C1332.92 96.9437 1331.21 94.3564 1328.46 90.8332C1326.81 88.8515 1324.6 86.2091 1321.85 82.9062C1319.21 79.4932 1316.18 75.6948 1312.77 71.5111C1309.36 67.2173 1305.72 62.8134 1301.87 58.2994C1298.13 53.6752 1294.38 49.1612 1290.64 44.7573C1287.01 40.2433 1283.59 36.0596 1280.4 32.2062H1279.9V91.1635C1279.9 94.6866 1280.29 97.2189 1281.06 98.7603C1281.83 100.302 1282.6 101.072 1283.37 101.072H1253.32Z" fill="white"/>
<path d="M1179.86 102.724C1160.92 102.724 1147.22 98.2099 1138.74 89.1819C1130.37 80.0438 1126.19 67.3275 1126.19 51.033C1126.19 40.5737 1128 31.6007 1131.64 24.1141C1135.38 16.5174 1141.16 10.6822 1148.98 6.60857C1156.9 2.42486 1167.2 0.333008 1179.86 0.333008H1184.98C1197.42 0.333008 1207.49 2.36981 1215.2 6.44343C1223.02 10.517 1228.74 16.3522 1232.38 23.949C1236.01 31.5457 1237.83 40.5737 1237.83 51.033C1237.83 67.3275 1233.64 80.0438 1225.28 89.1819C1216.91 98.2099 1203.48 102.724 1184.98 102.724H1179.86ZM1181.51 86.0441H1183.33C1190.59 86.0441 1196.54 84.9431 1201.16 82.7411C1205.79 80.4291 1209.2 76.7408 1211.4 71.6763C1213.72 66.5017 1214.87 59.6206 1214.87 51.033C1214.87 42.6656 1213.72 36.0047 1211.4 31.0503C1209.09 25.9858 1205.57 22.3525 1200.83 20.1506C1196.21 17.9486 1190.37 16.8477 1183.33 16.8477H1181.51C1174.13 16.8477 1168.02 18.0037 1163.18 20.3157C1158.45 22.6278 1154.87 26.3161 1152.45 31.3806C1150.13 36.335 1148.98 42.8858 1148.98 51.033C1148.98 59.5105 1150.19 66.3366 1152.61 71.5112C1155.03 76.6858 1158.61 80.4291 1163.35 82.7411C1168.19 84.9431 1174.24 86.0441 1181.51 86.0441Z" fill="white"/>
<path d="M1080.59 101.072C1081.36 101.072 1082.13 100.357 1082.9 98.9254C1083.67 97.384 1084.06 94.7967 1084.06 91.1635V11.8932C1084.06 8.37004 1083.67 5.83779 1082.9 4.29642C1082.13 2.75506 1081.36 1.98438 1080.59 1.98438H1110.32C1109.54 1.98438 1108.77 2.75506 1108 4.29642C1107.23 5.72769 1106.85 8.31499 1106.85 12.0583V91.1635C1106.85 94.6866 1107.23 97.2189 1108 98.7603C1108.77 100.302 1109.54 101.072 1110.32 101.072H1080.59Z" fill="white"/>
<path d="M1001.81 101.072C1002.58 101.072 1003.35 100.302 1004.12 98.7603C1004.89 97.2189 1005.28 94.6866 1005.28 91.1635V23.4534C1005.28 21.0313 1005 19.6 1004.45 19.1596C1003.9 18.7192 1001.98 18.499 998.674 18.499H986.618C980.232 18.499 975.058 19.2147 971.094 20.6459C967.241 21.9671 964.708 23.2332 963.497 24.4443L966.8 6.44333V1.98438H1066.88V6.44333L1070.18 24.4443C1068.97 23.2332 1066.38 21.9671 1062.42 20.6459C1058.57 19.2147 1053.45 18.499 1047.06 18.499H1035.17C1031.76 18.499 1029.78 18.7192 1029.23 19.1596C1028.68 19.6 1028.4 21.0313 1028.4 23.4534V91.1635C1028.4 94.6866 1028.79 97.2189 1029.56 98.7603C1030.33 100.302 1031.1 101.072 1031.87 101.072H1001.81Z" fill="white"/>
<path d="M923.183 101.072C923.954 101.072 924.725 100.357 925.496 98.9254C926.266 97.384 926.652 94.7967 926.652 91.1635V11.8932C926.652 8.37004 926.266 5.83779 925.496 4.29642C924.725 2.75506 923.954 1.98438 923.183 1.98438H952.91C952.139 1.98438 951.369 2.75506 950.598 4.29642C949.827 5.72769 949.442 8.31499 949.442 12.0583V91.1635C949.442 94.6866 949.827 97.2189 950.598 98.7603C951.369 100.302 952.139 101.072 952.91 101.072H923.183Z" fill="white"/>
<path d="M806.258 101.072C807.029 101.072 807.8 100.302 808.57 98.7603C809.341 97.2189 809.727 94.6866 809.727 91.1635V11.8932C809.727 8.37004 809.341 5.89284 808.57 4.46157C807.8 2.9202 807.029 2.09447 806.258 1.98438H867.032C875.73 1.98438 882.556 2.97525 887.511 4.95701C892.575 6.93877 896.153 9.80131 898.245 13.5446C900.337 17.1779 901.383 21.4717 901.383 26.4261C901.383 30.2795 900.667 33.5824 899.236 36.3349C897.915 38.9772 896.208 41.1241 894.116 42.7756C892.025 44.3169 889.933 45.473 887.841 46.2437V46.5739C894.997 48.2254 900.392 51.198 904.025 55.4919C907.658 59.7857 909.475 65.4007 909.475 72.3368C909.475 77.2912 908.429 81.9704 906.337 86.3743C904.245 90.7782 900.612 94.3564 895.438 97.1088C890.263 99.7511 882.997 101.072 873.638 101.072H806.258ZM839.453 84.3925H867.197C874.134 84.3925 879.033 83.2915 881.896 81.0896C884.868 78.8876 886.354 75.6397 886.354 71.3459C886.354 66.942 884.703 63.584 881.4 61.272C878.207 58.9599 872.592 57.8039 864.555 57.8039H839.618C836.315 57.8039 834.333 58.0241 833.673 58.4645C833.122 58.9049 832.847 60.3912 832.847 62.9235V79.4381C832.847 81.8603 833.122 83.2915 833.673 83.7319C834.333 84.1723 836.26 84.3925 839.453 84.3925ZM839.618 42.7756H862.739C868.243 42.7756 872.207 41.7847 874.629 39.8029C877.161 37.7111 878.427 34.5733 878.427 30.3896C878.427 26.4261 877.216 23.5085 874.794 21.6368C872.482 19.6551 868.298 18.6642 862.243 18.6642H839.618C836.315 18.6642 834.333 18.8844 833.673 19.3248C833.122 19.6551 832.847 21.0863 832.847 23.6186V37.8212C832.847 40.2433 833.122 41.6746 833.673 42.115C834.333 42.5554 836.315 42.7756 839.618 42.7756Z" fill="white"/>
<path d="M758.843 101.072C759.614 101.072 760.385 100.357 761.155 98.9254C761.926 97.384 762.311 94.7967 762.311 91.1635V11.8932C762.311 8.37004 761.926 5.83779 761.155 4.29642C760.385 2.75506 759.614 1.98438 758.843 1.98438H788.57C787.799 1.98438 787.028 2.75506 786.258 4.29642C785.487 5.72769 785.102 8.31499 785.102 12.0583V91.1635C785.102 94.6866 785.487 97.2189 786.258 98.7603C787.028 100.302 787.799 101.072 788.57 101.072H758.843Z" fill="white"/>
<path d="M629.823 101.072C630.593 101.072 631.364 100.302 632.135 98.7603C632.905 97.2189 633.291 94.6866 633.291 91.1635V11.8932C633.291 8.37004 632.905 5.89284 632.135 4.46157C631.364 2.9202 630.593 2.09447 629.823 1.98438H659.879C659.109 1.98438 658.338 2.75506 657.567 4.29642C656.796 5.83779 656.411 8.42509 656.411 12.0583V37.8212C656.411 40.2433 656.686 41.6746 657.237 42.115C657.897 42.5554 659.879 42.7756 663.182 42.7756H707.937C711.24 42.7756 713.167 42.6104 713.717 42.2801C714.268 41.8397 714.543 40.3534 714.543 37.8212V11.8932C714.543 8.37004 714.157 5.89284 713.387 4.46157C712.616 2.9202 711.845 2.09447 711.075 1.98438H741.131C740.361 1.98438 739.59 2.75506 738.819 4.29642C738.049 5.83779 737.663 8.42509 737.663 12.0583V91.1635C737.663 94.6866 738.049 97.2189 738.819 98.7603C739.59 100.302 740.361 101.072 741.131 101.072H711.075C711.845 101.072 712.616 100.302 713.387 98.7603C714.157 97.2189 714.543 94.6866 714.543 91.1635V64.2446C714.543 61.7124 714.212 60.2811 713.552 59.9508C713.001 59.5104 711.13 59.2902 707.937 59.2902H663.182C659.879 59.2902 657.897 59.5104 657.237 59.9508C656.686 60.3912 656.411 61.8225 656.411 64.2446V91.1635C656.411 94.6866 656.796 97.2189 657.567 98.7603C658.338 100.302 659.109 101.072 659.879 101.072H629.823Z" fill="white"/>
<path d="M499.023 101.072C499.463 101.072 500.619 100.302 502.491 98.7603C504.362 97.2189 506.895 94.7417 510.087 91.3287C512.179 89.0166 514.656 86.2642 517.519 83.0713C520.382 79.8785 523.409 76.4655 526.602 72.8322C529.795 69.199 533.043 65.5658 536.346 61.9326C539.649 58.1893 542.731 54.6661 545.594 51.3632C542.731 48.1704 539.594 44.7023 536.181 40.959C532.878 37.1055 529.575 33.3072 526.272 29.5639C522.969 25.8205 519.941 22.4625 517.189 19.4899C514.546 16.4072 512.455 13.985 510.913 12.2235C507.72 8.48013 505.078 5.83779 502.986 4.29642C501.004 2.75506 499.683 1.98438 499.023 1.98438H536.841C536.181 1.98438 535.96 2.75506 536.181 4.29642C536.511 5.83779 537.887 8.48013 540.309 12.2235C541.41 13.8749 542.676 15.7466 544.108 17.8384C545.649 19.9303 547.19 22.0772 548.732 24.2792C550.383 26.4811 551.925 28.573 553.356 30.5547C554.787 32.4264 555.998 34.0779 556.989 35.5091C558.09 36.8303 558.861 37.7661 559.301 38.3166H559.631C559.962 37.7661 560.622 36.8303 561.613 35.5091C562.714 34.188 563.98 32.5915 565.412 30.7199C566.953 28.7381 568.549 26.7013 570.201 24.6095C571.852 22.4075 573.449 20.2055 574.99 18.0036C576.531 15.8016 577.963 13.7648 579.284 11.8932C581.596 8.25994 582.862 5.72769 583.082 4.29642C583.412 2.75506 583.247 1.98438 582.587 1.98438H619.249C618.809 1.98438 617.653 2.75506 615.781 4.29642C613.91 5.72769 611.377 8.2049 608.184 11.728C606.093 14.0401 603.615 16.7925 600.753 19.9853C598 23.1782 595.028 26.5912 591.835 30.2244C588.642 33.8577 585.449 37.4909 582.256 41.1241C579.064 44.7573 576.036 48.1704 573.173 51.3632C575.926 54.6661 578.954 58.2443 582.256 62.0977C585.559 65.9511 588.862 69.7495 592.165 73.4928C595.468 77.2362 598.441 80.6492 601.083 83.7319C603.836 86.8147 605.983 89.1818 607.524 90.8332C610.937 94.4664 613.634 97.0538 615.616 98.5951C617.598 100.136 618.864 100.962 619.414 101.072H583.247C584.128 101.072 584.458 100.302 584.238 98.7603C584.018 97.2189 582.587 94.5765 579.944 90.8332C578.843 89.2919 577.467 87.5303 575.816 85.5485C574.164 83.4567 572.458 81.3648 570.696 79.273C569.045 77.071 567.393 75.0342 565.742 73.1625C564.2 71.2909 562.879 69.6945 561.778 68.3733C560.677 66.942 559.907 65.9511 559.466 65.4007H559.136C558.806 65.841 558.09 66.7218 556.989 68.043C555.998 69.3642 554.787 70.9606 553.356 72.8322C551.925 74.7039 550.328 76.7407 548.567 78.9427C546.915 81.0345 545.264 83.1264 543.612 85.2182C542.071 87.3101 540.584 89.2919 539.153 91.1635C536.401 94.6866 534.914 97.2189 534.694 98.7603C534.474 100.302 534.804 101.072 535.685 101.072H499.023Z" fill="white"/>
<path d="M391.941 101.072C392.711 101.072 393.482 100.302 394.253 98.7603C395.023 97.2189 395.409 94.6866 395.409 91.1635V11.8932C395.409 8.37004 395.023 5.89284 394.253 4.46157C393.482 2.9202 392.711 2.09447 391.941 1.98438H487.23V6.44333L490.533 24.4443C487.781 23.2332 482.936 21.9671 476 20.6459C469.064 19.2147 460.697 18.499 450.898 18.499H425.3C421.997 18.499 420.015 18.7743 419.355 19.3248C418.804 19.7652 418.529 21.1414 418.529 23.4534V37.8212C418.529 40.2433 418.804 41.6746 419.355 42.115C420.015 42.5554 421.942 42.7756 425.135 42.7756H450.072C456.458 42.7756 461.577 42.4453 465.431 41.7847C469.394 41.014 471.982 40.2433 473.193 39.4726C472.752 41.3443 472.257 43.5463 471.706 46.0785C471.156 48.6108 470.715 51.0329 470.385 53.345C470.055 55.657 469.89 57.6388 469.89 59.2902H425.135C421.942 59.2902 420.015 59.5104 419.355 59.9508C418.804 60.2811 418.529 61.7124 418.529 64.2446V79.273C418.529 81.8052 418.804 83.2915 419.355 83.7319C419.905 84.1723 421.832 84.3925 425.135 84.3925H470.881C477.266 84.3925 482.386 83.6769 486.239 82.2456C490.203 80.7042 492.79 79.2179 494.001 77.7867L490.698 95.9528V101.072H391.941Z" fill="white"/>
<path d="M273.489 101.072C274.26 101.072 275.031 100.302 275.801 98.7603C276.572 97.2189 276.957 94.6866 276.957 91.1635V23.4534C276.957 21.0313 276.682 19.6 276.131 19.1596C275.581 18.7192 273.654 18.499 270.351 18.499H258.296C251.91 18.499 246.735 19.2147 242.772 20.6459C238.918 21.9671 236.386 23.2332 235.175 24.4443L238.478 6.44333V1.98438H338.557V6.44333L341.86 24.4443C340.649 23.2332 338.061 21.9671 334.098 20.6459C330.245 19.2147 325.125 18.499 318.739 18.499H306.849C303.436 18.499 301.454 18.7192 300.903 19.1596C300.353 19.6 300.078 21.0313 300.078 23.4534V91.1635C300.078 94.6866 300.463 97.2189 301.234 98.7603C302.004 100.302 302.775 101.072 303.546 101.072H273.489Z" fill="white"/>
<path d="M130.032 101.072C130.803 101.072 131.519 100.302 132.179 98.7603C132.95 97.2189 133.335 94.6866 133.335 91.1635V11.8932C133.335 8.37004 132.95 5.89284 132.179 4.46157C131.408 2.9202 130.638 2.09447 129.867 1.98438H184.035C193.944 1.98438 201.761 3.19545 207.486 5.6176C213.321 8.03975 217.45 11.6179 219.872 16.3521C222.404 20.9762 223.67 26.6463 223.67 33.3622C223.67 38.0964 222.79 42.3902 221.028 46.2437C219.266 50.0971 216.624 53.345 213.101 55.9873C209.688 58.5195 205.559 60.2811 200.715 61.272V61.7674C206.11 63.6391 211.284 67.1622 216.239 72.3368C221.303 77.5114 225.762 83.2365 229.616 89.5121C232.148 93.5857 234.46 96.5033 236.552 98.2648C238.644 100.026 240.24 100.962 241.341 101.072H202.036C203.357 100.962 204.403 100.247 205.174 98.9254C206.055 97.4941 205.779 95.1821 204.348 91.9893C202.036 86.7046 199.064 82.0805 195.43 78.1169C191.907 74.1534 187.613 71.1257 182.549 69.0339C177.484 66.8319 171.649 65.7309 165.043 65.7309H163.227C159.814 65.7309 157.832 66.0062 157.281 66.5567C156.731 67.1072 156.456 68.4834 156.456 70.6853V91.1635C156.456 94.6866 156.841 97.2189 157.612 98.7603C158.382 100.302 159.153 101.072 159.924 101.072H130.032ZM163.227 50.2072H178.916C186.512 50.2072 192.072 48.886 195.595 46.2437C199.119 43.4912 200.88 39.1974 200.88 33.3622C200.88 30.3896 200.22 27.8023 198.898 25.6003C197.577 23.3984 195.43 21.7469 192.458 20.6459C189.595 19.4349 185.632 18.8293 180.567 18.8293H163.227C159.814 18.8293 157.832 18.9945 157.281 19.3248C156.731 19.6551 156.456 20.9212 156.456 23.1231V45.7482C156.456 47.9502 156.731 49.2713 157.281 49.7117C157.832 50.042 159.814 50.2072 163.227 50.2072Z" fill="white"/>
<path d="M0 101.072C0.550489 101.072 1.37622 100.302 2.4772 98.7603C3.68827 97.2189 5.0645 94.6316 6.60586 90.9984C7.37655 89.3469 8.64267 86.5394 10.4042 82.5759C12.1658 78.5023 14.2026 73.8231 16.5147 68.5384C18.9368 63.1437 21.414 57.5287 23.9463 51.6935C26.5886 45.8583 29.0658 40.2433 31.3779 34.8485C33.6899 29.4538 35.7267 24.7196 37.4883 20.6459C39.2498 16.5723 40.4609 13.6547 41.1215 11.8932C42.6629 8.37004 43.4886 5.83779 43.5987 4.29642C43.7088 2.75506 43.4886 1.98438 42.9381 1.98438H76.4629C76.0225 1.98438 75.8573 2.75506 75.9674 4.29642C76.0775 5.72769 76.8482 8.25994 78.2795 11.8932C79.0502 13.6547 80.2612 16.5723 81.9127 20.6459C83.5642 24.6095 85.5459 29.2886 87.858 34.6834C90.17 39.9681 92.5371 45.528 94.9593 51.3632C97.4915 57.1984 99.9137 62.8134 102.226 68.2082C104.538 73.4928 106.575 78.172 108.336 82.2456C110.208 86.3192 111.529 89.2368 112.3 90.9984C114.061 94.6316 115.658 97.2189 117.089 98.7603C118.63 100.302 119.786 101.072 120.557 101.072H85.3808C86.3717 100.962 87.1974 100.136 87.858 98.5951C88.5186 96.9437 88.4635 94.4114 87.6928 90.9984C87.4726 90.2277 87.2524 89.402 87.0322 88.5212C86.812 87.6404 86.4818 86.7046 86.0414 85.7137C85.601 84.1723 85.0505 83.0713 84.3899 82.4108C83.8394 81.6401 82.9586 81.1997 81.7476 81.0896C80.5365 80.8694 78.6648 80.7593 76.1326 80.7593H43.1033C40.4609 80.7593 38.4241 80.8694 36.9928 81.0896C35.6717 81.1997 34.7358 81.585 34.1853 82.2456C33.6349 82.9062 33.1394 84.0072 32.699 85.5485C32.4788 86.4293 32.2586 87.3652 32.0384 88.356C31.8182 89.3469 31.598 90.2277 31.3779 90.9984C30.6072 94.5215 30.387 97.0538 30.7173 98.5951C31.1577 100.136 31.7081 100.962 32.3687 101.072H0ZM47.3971 64.2446H71.3433C74.5362 64.2446 76.2977 63.9694 76.628 63.4189C76.9583 62.8684 76.7932 61.6573 76.1326 59.7857C74.7013 56.2625 73.215 52.6293 71.6736 48.886C70.1322 45.0326 68.5909 41.2342 67.0495 37.4909C65.6182 33.7476 64.242 30.2244 62.9208 26.9215C61.7098 23.6186 60.6638 20.8111 59.7831 18.499H59.4528C57.6912 22.7928 55.8195 27.3619 53.8378 32.2062C51.9661 36.9404 50.2046 41.3443 48.5531 45.4179C46.9016 49.4915 45.5254 52.8495 44.4244 55.4919C43.4335 58.0241 42.9381 59.2902 42.9381 59.2902C42.1674 61.0518 41.8922 62.3179 42.1124 63.0886C42.4427 63.8593 44.2042 64.2446 47.3971 64.2446Z" fill="white"/>
</svg>
